<svg id="SvgjsSvg1017" width="288" height="288" xmlns="http://www.w3.org/2000/svg" version="1.1" xmlns:xlink="http://www.w3.org/1999/xlink" xmlns:svgjs="http://svgjs.com/svgjs"><defs id="SvgjsDefs1018"></defs><g id="SvgjsG1019"><svg xmlns="http://www.w3.org/2000/svg" viewBox="0 0 24 24" width="288" height="288"><path d="M20 19H4a2 2 0 0 0 0 4h16a2 2 0 0 0 0-4zm2-13a2 2 0 0 0-2 2 2.041 2.041 0 0 0 .042.409L16.41 10.59l-3.061-6.122a2 2 0 1 0-2.7 0L7.59 10.59 3.958 8.409A2.041 2.041 0 0 0 4 8a2 2 0 1 0-2 2c.037 0 .071-.009.107-.011L2.88 17h18.24l.773-7.011c.036 0 .07.011.107.011a2 2 0 0 0 0-4z" data-name="30. Crown" fill="#c3c2c2" class="color000 svgShape"></path></svg></g></svg>