<svg xmlns="http://www.w3.org/2000/svg" width="2000" height="2000" enable-background="new 0 0 2000 2000" viewBox="0 0 2000 2000" id="double-bed"><path d="M1586.5488,957.5288h-42.2246V582.3269c0-53.199-43.2803-96.4792-96.4785-96.4792H552.1553
	c-53.1992,0-96.4795,43.2803-96.4795,96.4792v375.2019h-42.2246c-53.1992,0-96.4795,43.2803-96.4795,96.479v430.1445
	c0,16.5684,13.4316,30,30,30s30-13.4316,30-30v-73.043h1246.0566v73.043c0,16.5684,13.4316,30,30,30s30-13.4316,30-30v-430.1445
	C1683.0283,1000.8091,1639.748,957.5288,1586.5488,957.5288z M515.6758,582.3269c0-20.1147,16.3643-36.4792,36.4795-36.4792
	h895.6904c20.1143,0,36.4785,16.3645,36.4785,36.4792v375.2019h-119.5117V855.5083c0-53.1987-43.2803-96.479-96.4785-96.479
	h-87.8877c-53.1982,0-96.4785,43.2803-96.4785,96.479v102.0205H916.0332V855.5083c0-53.1987-43.2803-96.479-96.4795-96.479H731.667
	c-53.1992,0-96.4795,43.2803-96.4795,96.479v102.0205H515.6758V582.3269z M1143.9678,957.5288V855.5083
	c0-20.1145,16.3643-36.479,36.4785-36.479h87.8877c20.1143,0,36.4785,16.3645,36.4785,36.479v102.0205H1143.9678z
	 M695.1875,957.5288V855.5083c0-20.1145,16.3643-36.479,36.4795-36.479h87.8867c20.1152,0,36.4795,16.3645,36.4795,36.479v102.0205
	H695.1875z M413.4512,1017.5288h1173.0977c20.1143,0,36.4795,16.3645,36.4795,36.479v127.5801H376.9717v-127.5801
	C376.9717,1033.8933,393.3369,1017.5288,413.4512,1017.5288z M376.9717,1351.1094v-109.5215h1246.0566v109.5215H376.9717z"></path></svg>