<svg id="SvgjsSvg1012" width="288" height="288" xmlns="http://www.w3.org/2000/svg" version="1.1" xmlns:xlink="http://www.w3.org/1999/xlink" xmlns:svgjs="http://svgjs.com/svgjs"><defs id="SvgjsDefs1013"></defs><g id="SvgjsG1014"><svg xmlns="http://www.w3.org/2000/svg" id="Layer_1" x="0" y="0" enable-background="new 0 0 16 16" version="1.1" viewBox="0 0 16 16" xml:space="preserve" width="288" height="288"><path id="path7" fill="#ffffff" d="M3.754.5C2.787.5 2 1.287 2 2.254v10.992C2 14.213 2.787 15 3.754 15h7.992c.967 0 1.754-.787 1.754-1.754V4.771c0-.007-.007-.012-.008-.019a.246.246 0 0 0-.064-.158l-4-4a.244.244 0 0 0-.15-.067C9.252.52 9.232.5 9.206.5H3.754zm0 .5H9v2.281c0 .96.78 1.74 1.738 1.74H13v8.225c0 .691-.563 1.254-1.254 1.254H3.754A1.256 1.256 0 0 1 2.5 13.246V2.254C2.5 1.563 3.063 1 3.754 1Zm5.744.393H9.5c.77.766 2.314 2.3 3.145 3.128h-1.907c-.683 0-1.24-.557-1.24-1.24V1.393zm.434 8.533-1.56 1.515a.253.253 0 0 0 .001.364l1.56 1.476.344-.363-1.103-1.049h2.693v-.5H9.164l1.117-1.084-.35-.36Z" class="color231f20 svgShape"></path></svg></g></svg>