<svg xmlns="http://www.w3.org/2000/svg" enable-background="new 0 0 60 60" viewBox="0 0 60 60" id="ruler"><path d="M5.1,55c0,0.6,0.4,1,1,1h42.7c0.4,0,0.8-0.2,0.9-0.6s0.1-0.8-0.2-1.1L6.8,11.6c-0.3-0.3-0.7-0.4-1.1-0.2
	c-0.4,0.2-0.6,0.5-0.6,0.9V55z M46.3,54H7.1v-0.8h2.5c0.6,0,1-0.4,1-1s-0.4-1-1-1H7.1v-1.6h1.1c0.6,0,1-0.4,1-1s-0.4-1-1-1H7.1V46
	h2.5c0.6,0,1-0.4,1-1s-0.4-1-1-1H7.1v-1.6h1.1c0.6,0,1-0.4,1-1s-0.4-1-1-1H7.1v-1.6h2.5c0.6,0,1-0.4,1-1s-0.4-1-1-1H7.1v-1.6h1.1
	c0.6,0,1-0.4,1-1s-0.4-1-1-1H7.1v-1.6h2.5c0.6,0,1-0.4,1-1s-0.4-1-1-1H7.1v-1.6h1.1c0.6,0,1-0.4,1-1s-0.4-1-1-1H7.1v-1.6h2.5
	c0.6,0,1-0.4,1-1s-0.4-1-1-1H7.1v-1.6h1.1c0.6,0,1-0.4,1-1s-0.4-1-1-1H7.1v-4L46.3,54z"></path><path d="M14.1 48h15.3c.4 0 .8-.2.9-.6s.1-.8-.2-1.1L14.8 31c-.3-.3-.7-.4-1.1-.2-.4.2-.6.5-.6.9V47C13.1 47.6 13.5 48 14.1 48zM15.1 34.1L27 46H15.1V34.1zM20.8 6.3c-.4-.4-1-.4-1.4 0l-6 6c-.4.4-.4 1 0 1.4l2.6 2.6c0 0 0 0 0 0s0 0 0 0l3.2 3.2c0 0 0 0 0 0s0 0 0 0l3.2 3.2c0 0 0 0 0 0s0 0 0 0l3.2 3.2c0 0 0 0 0 0s0 0 0 0l3.2 3.2c0 0 0 0 0 0s0 0 0 0l3.2 3.2c0 0 0 0 0 0s0 0 0 0l3.2 3.2c0 0 0 0 0 0s0 0 0 0l3.2 3.2c0 0 0 0 0 0s0 0 0 0l3.2 3.2c0 0 0 0 0 0s0 0 0 0l3.2 3.2c0 0 0 0 0 0s0 0 0 0l2.6 2.6c.2.2.5.3.7.3s.5-.1.7-.3l6-6c.4-.4.4-1 0-1.4L20.8 6.3zM48.1 45.6l-1.2-1.2 1.8-1.8c.4-.4.4-1 0-1.4s-1-.4-1.4 0L45.4 43l-1.8-1.8.8-.8c.4-.4.4-1 0-1.4s-1-.4-1.4 0l-.8.8L40.5 38l1.8-1.8c.4-.4.4-1 0-1.4s-1-.4-1.4 0L39 36.6l-1.8-1.8L38 34c.4-.4.4-1 0-1.4s-1-.4-1.4 0l-.8.8-1.8-1.8 1.8-1.8c.4-.4.4-1 0-1.4s-1-.4-1.4 0l-1.8 1.8-1.8-1.8.8-.8c.4-.4.4-1 0-1.4s-1-.4-1.4 0L29.4 27l-1.8-1.8 1.8-1.8c.4-.4.4-1 0-1.4s-1-.4-1.4 0l-1.8 1.8L24.5 22l.8-.8c.4-.4.4-1 0-1.4s-1-.4-1.4 0L23 20.6l-1.8-1.8 1.8-1.8c.4-.4.4-1 0-1.4s-1-.4-1.4 0l-1.8 1.8-1.8-1.8.8-.8c.4-.4.4-1 0-1.4s-1-.4-1.4 0l-.8.8L15.5 13 20 8.4 52.6 41 48.1 45.6z"></path></svg>